PathFileType	4	(X/Y/Z)	D:\TRACE\spotREDO_2-26-24\spot_justBody_Motion_2_5-v60.trc
DataRate	CameraRate	NumFrames	NumMarkers	Units	OrigDataRate	OrigDataStartFrame	OrigNumFrames
100.00	100.00	      31	9	mm	100.00	6126	      7000
Frame#	Time	front left toe			Front right toe			aft left toe			aft right toe			Arm			FL body			FR body			AL Body			AR Body			
		X1	Y1	Z1	X2	Y2	Z2	X3	Y3	Z3	X4	Y4	Z4	X5	Y5	Z5	X6	Y6	Z6	X7	Y7	Z7	X8	Y8	Z8	X9	Y9	Z9	

6126	61.250	-186.31783	19.23207	-94.60516	353.11920	19.00634	-170.06476	-93.31409	36.53900	438.76093	458.47098	44.20739	376.82507	58.88390	785.59625	-329.28241	-17.93515	528.08051	-277.23480	136.26678	532.86938	-299.51712	95.17364	599.46124	596.58295	243.09023	599.99548	577.86530	
6127	61.260	-185.04907	19.40837	-94.36421	354.71439	20.24833	-169.71436	-92.08009	35.66654	439.16043	459.46008	43.15821	377.04428	59.86841	785.52832	-328.93384	-17.12063	528.12292	-277.34610	137.31638	532.72699	-299.40155	96.29051	599.05933	596.85602	243.92329	599.52161	578.14911	
6128	61.270	-184.15117	19.92047	-94.10285	355.19943	20.10463	-169.76279	-90.77013	34.70575	439.36270	460.58896	42.66946	377.33847	61.36233	785.58801	-328.72681	-16.09023	528.18170	-277.15445	138.30153	532.81317	-299.34122	97.43282	598.67792	597.13550	244.95258	598.91052	578.36621	
6129	61.280	-182.82124	20.01044	-93.68085	357.37228	21.31596	-168.83833	-89.82566	33.98660	439.60233	461.83307	41.60452	377.65173	62.40303	785.42194	-328.61612	-14.77287	528.22296	-276.84308	139.35103	532.37775	-298.94394	97.99673	598.36774	597.33746	245.49019	598.57642	578.66486	
6130	61.290	-181.89786	20.36855	-93.47637	358.55115	21.42751	-168.62001	-89.03469	33.06651	440.00931	462.55466	41.06841	378.01920	63.92253	785.16949	-328.03217	-13.72864	528.06464	-276.61090	140.27011	532.31207	-298.74051	98.82387	598.04700	597.38800	246.64432	597.90936	578.95764	
6131	61.300	-180.57681	20.62762	-93.30199	358.63879	21.05055	-168.57051	-87.62262	31.69381	440.37082	463.85944	40.32348	378.47665	65.01119	785.27185	-327.75479	-12.49119	527.98303	-276.22043	141.72348	532.10864	-298.36978	99.88970	597.37878	597.87091	247.68147	597.40747	579.47571	
6132	61.310	-179.51381	20.78677	-92.78672	359.73355	21.55390	-168.10077	-86.83928	31.06767	440.48672	464.76715	39.27055	378.67609	66.46891	785.13452	-327.19928	-11.64381	527.84473	-276.00812	142.72687	532.18536	-298.09433	100.81964	596.82318	598.26837	248.62558	596.80090	579.64862	
6133	61.320	-178.32410	20.82732	-92.31996	360.80746	21.99945	-167.89670	-85.48989	29.81997	441.06604	466.01343	38.61520	379.18378	67.61018	785.17822	-326.70441	-10.47060	527.79944	-275.68979	143.99934	532.15131	-297.59631	102.74667	595.65460	598.54840	249.54753	596.21466	580.03394	
6134	61.330	-177.54175	21.55366	-92.10751	361.97562	22.42431	-167.54016	-84.55473	28.95907	441.36063	467.04803	37.78395	379.40604	68.52588	785.28436	-326.16205	-9.40427	528.00848	-275.46817	144.82875	532.07019	-297.30328	103.86384	595.04828	598.80652	251.14613	595.61090	580.86066	
6135	61.340	-176.01088	21.43394	-91.75304	363.20630	23.03569	-167.05782	-83.36312	28.08084	441.54224	468.20721	37.00761	379.73898	69.65073	785.28973	-325.54453	-8.90166	528.28082	-275.41632	145.90321	532.01001	-296.86505	104.39359	594.67719	598.80402	252.17447	595.08502	580.96100	
6136	61.350	-175.05276	21.76023	-91.28520	363.80423	23.31096	-166.82860	-82.28963	27.19326	441.74698	469.41159	36.10968	379.85794	70.62727	785.31390	-325.11807	-7.24628	528.10236	-274.26788	146.80904	532.12317	-296.47141	105.55769	594.47229	600.13666	253.33514	594.54004	581.35614	
6137	61.360	-174.10057	22.21683	-91.04383	364.87112	23.91618	-166.38989	-81.22218	26.39918	442.27795	470.37891	35.34566	380.43036	71.69908	785.55139	-324.28061	-6.44961	528.13922	-274.15488	148.15076	532.20667	-295.88333	106.53924	593.88196	600.48218	254.49985	593.76929	581.95129	
6138	61.370	-172.97020	22.27898	-90.47991	366.93710	25.22683	-165.87297	-80.07492	25.29811	442.70251	471.53461	34.50472	380.70386	72.84061	785.85413	-323.61346	-5.00849	528.13190	-273.24838	149.19427	532.31274	-295.40271	108.00682	593.10291	601.11700	255.76276	593.15070	582.53046	
6139	61.380	-171.96312	22.60096	-90.10931	369.44952	25.99257	-164.72380	-79.19830	24.50766	442.75064	472.41226	33.39095	380.93796	74.06990	785.93750	-322.81699	-4.26762	528.47864	-272.94690	150.08327	532.33142	-294.84241	109.08229	592.47083	601.70605	256.94531	592.40027	583.10815	
6140	61.390	-170.83626	23.12836	-89.84375	368.17990	25.37608	-165.43689	-78.00491	23.44862	443.20920	473.89548	32.97440	381.43542	75.21708	785.94971	-321.82492	-3.42360	528.81134	-272.61041	151.16273	532.42371	-294.27197	110.97241	591.23553	602.06903	258.05768	591.73328	583.75232	
6141	61.400	-170.06665	23.24955	-89.42288	370.00278	26.66211	-164.72318	-76.95824	22.52110	443.52853	474.56189	31.97896	381.71951	76.48862	786.20660	-321.16586	-2.00641	528.82416	-271.76923	152.14868	532.63153	-293.71854	111.66228	591.12885	603.04456	259.40280	590.98944	584.23376	
6142	61.410	-168.74332	23.29317	-89.11469	371.24329	26.93121	-164.32809	-76.21787	21.49794	443.63620	475.52814	31.01557	382.08405	77.97420	786.46301	-320.25406	-0.77929	529.04309	-270.86899	153.51198	532.84729	-293.10242	113.03022	590.45746	603.66052	260.62057	590.12775	584.91980	
6143	61.420	-167.92085	23.87766	-88.70030	371.07193	26.52795	-164.30684	-75.13792	20.31163	444.20541	476.76794	30.20637	382.42191	78.88264	786.59607	-319.64111	0.41450	529.16309	-270.46133	154.66118	532.98248	-292.43756	114.48597	589.84381	604.32495	261.97604	589.51666	585.71979	
6144	61.430	-166.97246	24.21478	-88.27747	373.27203	27.73516	-163.49435	-74.13909	19.33197	444.58316	477.55429	29.11606	382.90359	80.37187	786.79224	-318.32742	1.25955	529.59399	-270.13925	155.95525	533.01147	-291.79352	115.56113	589.13898	605.12061	263.38840	588.73279	586.35193	
6145	61.440	-165.85779	24.36150	-87.88551	374.17010	28.05992	-163.19444	-73.08350	18.58402	444.81995	478.90927	28.54797	383.30545	81.63414	787.19702	-317.52872	2.69224	529.58984	-268.95010	156.92751	533.14636	-291.11734	117.07452	588.51874	605.88293	264.78464	588.09839	587.17169	
6146	61.450	-165.05434	24.84437	-87.54861	374.21094	27.84221	-162.97426	-72.07276	17.72998	444.96695	479.86288	27.67269	383.51187	83.20203	787.42352	-316.52051	3.97114	530.06042	-268.21198	158.45396	533.46869	-290.27377	118.13523	587.75903	606.66229	266.05872	587.20074	587.91058	
6147	61.460	-164.07904	25.15200	-87.27007	375.15616	28.17508	-162.56836	-71.05554	16.61935	445.52612	480.70609	26.67128	383.96320	84.58675	787.74530	-315.44186	5.21749	530.33301	-267.29193	159.59335	533.85468	-289.45102	119.60874	586.98596	607.48846	267.36847	586.44971	588.86041	
6148	61.470	-163.20930	25.26970	-86.65940	376.21274	28.50997	-162.19962	-69.97209	15.55171	445.77863	481.99442	25.93683	384.08481	86.28826	788.09393	-314.27948	6.54231	530.63226	-266.46231	160.79781	533.92328	-288.89771	120.87285	586.26031	608.31329	268.78247	585.67645	589.63171	
6149	61.480	-161.89319	25.52107	-86.34455	377.11273	28.99610	-161.72009	-69.21034	14.60604	446.09003	482.61255	25.06518	384.54068	87.50822	788.42944	-313.25793	7.89377	530.95819	-265.68570	162.16064	534.30798	-288.08249	122.27623	585.63837	609.17572	270.00192	584.71893	590.45874	
6150	61.490	-161.00626	25.95016	-86.08171	378.04608	29.20537	-161.31326	-68.32393	13.88209	446.39383	483.59457	24.03242	384.84955	89.10372	788.73138	-312.17941	9.39447	531.29285	-264.81815	163.62097	534.58875	-287.18726	123.70061	584.79834	610.11450	271.69730	583.93958	591.71161	
6151	61.500	-160.28108	26.13622	-85.73539	379.87845	30.35311	-160.84090	-67.15855	12.78056	447.09442	484.69281	23.50969	385.21503	90.65099	789.26416	-310.83093	10.54227	531.79218	-264.23505	164.79103	534.81750	-286.25232	124.89871	584.23535	610.94922	272.72195	583.12360	592.39331	
6152	61.510	-158.95193	26.42714	-85.20661	379.90933	30.23239	-160.66824	-66.41520	11.79486	447.16565	485.42188	22.49669	385.57211	92.51323	789.45844	-309.59302	12.01032	532.19745	-263.24677	166.21906	534.97968	-285.29880	126.39252	583.32349	612.00586	274.26141	582.20935	593.36438	
6153	61.520	-158.60739	26.83999	-85.00511	380.88235	30.51687	-160.23035	-65.89149	11.15106	447.29822	486.18890	21.57031	385.95300	93.60701	790.04480	-308.64633	13.44706	532.38428	-262.38043	167.34801	535.35852	-284.50842	127.48226	582.58258	612.91364	275.66061	581.37781	594.27448	
6154	61.530	-157.60590	27.29077	-84.56441	382.61154	31.55475	-159.51624	-64.64767	9.94045	448.05478	487.39542	20.72522	386.34195	95.38993	790.34314	-307.14255	14.68435	532.94641	-261.51505	169.02306	535.64209	-283.50812	128.98248	581.79419	613.98346	276.98709	580.47070	595.32404	
6155	61.540	-156.40797	27.82091	-84.10484	382.84241	31.09881	-159.23320	-63.86267	9.30482	448.24911	488.07986	19.44007	386.82642	96.76482	790.55066	-306.07660	16.12019	533.06195	-260.49945	170.23141	535.88800	-282.65567	130.03842	580.96692	614.79272	277.86624	579.69299	596.39008	
6156	61.550	-155.68260	28.07393	-83.80253	383.65915	31.48822	-158.72681	-63.10209	8.41504	448.22672	489.08301	19.11406	387.11685	98.23238	791.19000	-304.70975	17.05341	533.59521	-259.87390	171.58360	536.37769	-281.67001	131.24989	580.12421	615.69879	279.33896	578.90186	597.19019	
